# xmcd
#
# Track frame offsets:
#	150
#	27750
#	48276
#	65399
#	87449
#	104573
#	121523
#	144422
#	165822
#	177522
#	187722
#	197301
#
# Disc length: 2835 seconds
#
# Revision: 0
# Processed by: cddbd v1.5PL3 Copyright (c) Steve Scherf et al.
# Submitted via: dBpowerAMP V4.0
#
DISCID=8b0b110c
DTITLE=Various Artist - Paralelo 30 Hoje
DYEAR=1900
DGENRE=Latin
TTITLE0=Milonga De Paus-Bebeto Alves
TTITLE1=Homem Alma-Nélson Coelho de Castro
TTITLE2=Fronteiras-Raul Ellwanger
TTITLE3=Manhã-Gélson Oliveira
TTITLE4=Sete Povos Das Missões-Zé Caradípia
TTITLE5=Ruínas De Um Sonho-Cláudio Vera Cruz
TTITLE6=?Que Se Pasa?-Bebeto Alves
TTITLE7=Maria da Paz-Gélson Oliveira
TTITLE8=Águias-Nélson Coelho de Castro
TTITLE9=Água Benta-Zé Caradípia
TTITLE10=O Mapa-Cláudio Vera Cruz
TTITLE11=Pealo De Sangue-Raul Ellwanger
EXTD=
EXTT0=
EXTT1=
EXTT2=
EXTT3=
EXTT4=
EXTT5=
EXTT6=
EXTT7=
EXTT8=
EXTT9=
EXTT10=
EXTT11=
PLAYORDER=
